<mxfile host="Electron" modified="2024-04-02T23:36:49.032Z" agent="Mozilla/5.0 (Windows NT 10.0; Win64; x64) AppleWebKit/537.36 (KHTML, like Gecko) draw.io/24.1.0 Chrome/120.0.6099.109 Electron/28.1.0 Safari/537.36" etag="1EONNda8aoeCsBRSIKwd" version="24.1.0" type="device">
  <diagram id="TzoWW7KKMy2ubQKhGPcB" name="Page-1">
    <mxGraphModel dx="583" dy="2945" grid="1" gridSize="10" guides="1" tooltips="1" connect="1" arrows="1" fold="1" page="1" pageScale="1" pageWidth="5000" pageHeight="2600" math="0" shadow="0">
      <root>
        <mxCell id="0" />
        <mxCell id="1" parent="0" />
        <mxCell id="U78_huqTYP2t_q-OurNE-1" value="Person" style="swimlane;fontStyle=1;align=center;verticalAlign=top;childLayout=stackLayout;horizontal=1;startSize=26;horizontalStack=0;resizeParent=1;resizeParentMax=0;resizeLast=0;collapsible=1;marginBottom=0;whiteSpace=wrap;html=1;" parent="1" vertex="1">
          <mxGeometry x="1490" y="-1210" width="380" height="560" as="geometry" />
        </mxCell>
        <mxCell id="U78_huqTYP2t_q-OurNE-2" value="- firstName: String&lt;div&gt;- lastName: String&lt;/div&gt;&lt;div&gt;- dateOfBirth: String&lt;/div&gt;&lt;div&gt;- age: int&lt;/div&gt;&lt;div&gt;- comments: String&lt;/div&gt;&lt;div&gt;&lt;div&gt;&lt;span style=&quot;background-color: initial;&quot;&gt;- family: Family&lt;/span&gt;&lt;/div&gt;&lt;div&gt;&lt;span style=&quot;background-color: initial;&quot;&gt;- gender: String&lt;/span&gt;&lt;/div&gt;&lt;/div&gt;&lt;div&gt;&lt;span style=&quot;background-color: initial;&quot;&gt;- dietaryRestrictions: DietaryRestrictions&lt;/span&gt;&lt;/div&gt;" style="text;strokeColor=none;fillColor=none;align=left;verticalAlign=top;spacingLeft=4;spacingRight=4;overflow=hidden;rotatable=0;points=[[0,0.5],[1,0.5]];portConstraint=eastwest;whiteSpace=wrap;html=1;" parent="U78_huqTYP2t_q-OurNE-1" vertex="1">
          <mxGeometry y="26" width="380" height="124" as="geometry" />
        </mxCell>
        <mxCell id="U78_huqTYP2t_q-OurNE-3" value="" style="line;strokeWidth=1;fillColor=none;align=left;verticalAlign=middle;spacingTop=-1;spacingLeft=3;spacingRight=3;rotatable=0;labelPosition=right;points=[];portConstraint=eastwest;strokeColor=inherit;" parent="U78_huqTYP2t_q-OurNE-1" vertex="1">
          <mxGeometry y="150" width="380" height="8" as="geometry" />
        </mxCell>
        <mxCell id="U78_huqTYP2t_q-OurNE-4" value="&lt;div&gt;&lt;span style=&quot;background-color: initial;&quot;&gt;+ Person(firstName: String)&lt;/span&gt;&lt;/div&gt;&lt;div&gt;&lt;span style=&quot;background-color: initial;&quot;&gt;+ Person(firstName: String, lastName: String)&lt;/span&gt;&lt;/div&gt;&lt;div&gt;&lt;span style=&quot;background-color: initial;&quot;&gt;&lt;br&gt;&lt;/span&gt;&lt;/div&gt;&lt;div&gt;&lt;span style=&quot;background-color: initial;&quot;&gt;+ parseDate(date: String, for: String): String&lt;/span&gt;&lt;/div&gt;&lt;div&gt;&lt;span style=&quot;background-color: initial;&quot;&gt;&lt;br&gt;&lt;/span&gt;&lt;/div&gt;&lt;div&gt;&lt;span style=&quot;background-color: initial;&quot;&gt;+ getFirstName(): String&lt;/span&gt;&lt;br&gt;&lt;/div&gt;&lt;div&gt;+ getLastName(): String&lt;/div&gt;&lt;div&gt;+ getDateOfBirth(): String&lt;/div&gt;&lt;div&gt;+ getComments(): String&lt;/div&gt;&lt;div&gt;+ getFamily(): Family&lt;/div&gt;&lt;div&gt;&lt;span style=&quot;background-color: initial;&quot;&gt;+ getGender(): String&lt;/span&gt;&lt;br&gt;&lt;/div&gt;&lt;div&gt;&lt;span style=&quot;background-color: initial;&quot;&gt;+ getDietaryRestrictions(): DietaryRestrictions&lt;/span&gt;&lt;/div&gt;&lt;div&gt;&lt;span style=&quot;background-color: initial;&quot;&gt;&lt;br&gt;&lt;/span&gt;&lt;/div&gt;&lt;div&gt;+ setFirstName(firstName: String): void&lt;/div&gt;&lt;div&gt;+ setLastName(lastName: String): void&lt;/div&gt;&lt;div&gt;+ setDateOfBirth(dateOfBirth: String): void&lt;/div&gt;&lt;div&gt;+ setComments(comments: String): void&lt;/div&gt;&lt;div&gt;+ setDietaryRestrictions(restrictions: DietaryRestrictions): void&lt;/div&gt;&lt;div&gt;&lt;br&gt;&lt;/div&gt;&lt;div&gt;+ setFamily(family: Family): void&lt;/div&gt;&lt;div&gt;+ setGender(gender: String): void&lt;/div&gt;&lt;div&gt;&lt;br&gt;&lt;/div&gt;&lt;div&gt;+ addFamiIyConnection(famiIyConnection: FamilyReIation): void&lt;/div&gt;&lt;div&gt;+ removeFamilyConnection(familyConnection: FamilyRelation): void&lt;/div&gt;&lt;div&gt;&lt;br&gt;&lt;/div&gt;" style="text;strokeColor=none;fillColor=none;align=left;verticalAlign=top;spacingLeft=4;spacingRight=4;overflow=hidden;rotatable=0;points=[[0,0.5],[1,0.5]];portConstraint=eastwest;whiteSpace=wrap;html=1;" parent="U78_huqTYP2t_q-OurNE-1" vertex="1">
          <mxGeometry y="158" width="380" height="402" as="geometry" />
        </mxCell>
        <mxCell id="U78_huqTYP2t_q-OurNE-5" value="DisasterVictim" style="swimlane;fontStyle=1;align=center;verticalAlign=top;childLayout=stackLayout;horizontal=1;startSize=26;horizontalStack=0;resizeParent=1;resizeParentMax=0;resizeLast=0;collapsible=1;marginBottom=0;whiteSpace=wrap;html=1;" parent="1" vertex="1">
          <mxGeometry x="1960" y="-870" width="440" height="460" as="geometry" />
        </mxCell>
        <mxCell id="U78_huqTYP2t_q-OurNE-6" value="&lt;div&gt;&lt;span style=&quot;background-color: initial;&quot;&gt;- ASSIGNED SOCIAL ID: int&lt;/span&gt;&lt;br&gt;&lt;/div&gt;&lt;div&gt;- medicalRecords: ArrayList&amp;lt;MedicalRecord&amp;gt;&lt;/div&gt;&lt;div&gt;&lt;span style=&quot;background-color: initial;&quot;&gt;- ENTRY_DATE: String&lt;/span&gt;&lt;br&gt;&lt;/div&gt;&lt;div&gt;- personalBelongings: ArrayList&amp;lt;Supply&amp;gt;&lt;/div&gt;&lt;div&gt;&lt;span style=&quot;background-color: initial;&quot;&gt;- missing: Boolean&lt;/span&gt;&lt;br&gt;&lt;/div&gt;&lt;div&gt;&lt;span style=&quot;background-color: initial;&quot;&gt;- lastKnownLocation: Location&lt;/span&gt;&lt;/div&gt;&lt;div&gt;-&amp;nbsp;&lt;u&gt;counter: int&lt;/u&gt;&lt;/div&gt;" style="text;strokeColor=none;fillColor=none;align=left;verticalAlign=top;spacingLeft=4;spacingRight=4;overflow=hidden;rotatable=0;points=[[0,0.5],[1,0.5]];portConstraint=eastwest;whiteSpace=wrap;html=1;" parent="U78_huqTYP2t_q-OurNE-5" vertex="1">
          <mxGeometry y="26" width="440" height="144" as="geometry" />
        </mxCell>
        <mxCell id="U78_huqTYP2t_q-OurNE-7" value="" style="line;strokeWidth=1;fillColor=none;align=left;verticalAlign=middle;spacingTop=-1;spacingLeft=3;spacingRight=3;rotatable=0;labelPosition=right;points=[];portConstraint=eastwest;strokeColor=inherit;" parent="U78_huqTYP2t_q-OurNE-5" vertex="1">
          <mxGeometry y="170" width="440" height="8" as="geometry" />
        </mxCell>
        <mxCell id="U78_huqTYP2t_q-OurNE-8" value="&lt;div&gt;+ DisasterVictim(firstName: String, ENTRY_DATE: String)&lt;/div&gt;&lt;div&gt;&lt;br&gt;&lt;/div&gt;&lt;div&gt;&lt;div&gt;&lt;span style=&quot;background-color: initial;&quot;&gt;+ getMedicalRecords(): ArrayList&amp;lt;MedicalRecord&amp;gt;&lt;/span&gt;&lt;br&gt;&lt;/div&gt;&lt;div&gt;&lt;div&gt;+ getEntryDate(): String&lt;/div&gt;&lt;div&gt;+ getAssignedSociallD(): int&lt;/div&gt;&lt;div&gt;+ getPersonalBelongings: ArrayList&amp;lt;Supply&amp;gt;&lt;/div&gt;&lt;/div&gt;&lt;div&gt;&lt;div&gt;+ getMissingStatus(): Boolean&lt;/div&gt;&lt;div&gt;+ getLastKnownLocation(): Location&lt;/div&gt;&lt;div&gt;&lt;/div&gt;&lt;div&gt;&lt;br&gt;&lt;/div&gt;&lt;div&gt;+ setMedicalRecords(medicalRecords: ArrayList&amp;lt;MedicalRecord&amp;gt;): void&lt;/div&gt;&lt;div&gt;+ setPersonalBelongings(supplies: ArrayList&amp;lt;Supply&amp;gt;)&lt;/div&gt;&lt;/div&gt;&lt;div&gt;+ setMissingStatus(missing: Boolean): void&lt;br&gt;&lt;/div&gt;&lt;div&gt;+ setLastKnownLocation(location: Location): void&lt;/div&gt;&lt;div&gt;&lt;br&gt;&lt;/div&gt;&lt;div&gt;&lt;div&gt;+ addPersonalBelonging(supply: Supply): void&lt;/div&gt;&lt;div&gt;+ removePersonalBelonging(supply: Supply): void&lt;/div&gt;&lt;/div&gt;&lt;div&gt;+ addMedicalRecord(medicalRecord:MedicalRecord): void&lt;br&gt;&lt;/div&gt;&lt;div&gt;+ removeMedicalRecord(medicalRecord: MedicalRecord): void&lt;/div&gt;&lt;/div&gt;" style="text;strokeColor=none;fillColor=none;align=left;verticalAlign=top;spacingLeft=4;spacingRight=4;overflow=hidden;rotatable=0;points=[[0,0.5],[1,0.5]];portConstraint=eastwest;whiteSpace=wrap;html=1;" parent="U78_huqTYP2t_q-OurNE-5" vertex="1">
          <mxGeometry y="178" width="440" height="282" as="geometry" />
        </mxCell>
        <mxCell id="U78_huqTYP2t_q-OurNE-9" value="Inquirer" style="swimlane;fontStyle=1;align=center;verticalAlign=top;childLayout=stackLayout;horizontal=1;startSize=26;horizontalStack=0;resizeParent=1;resizeParentMax=0;resizeLast=0;collapsible=1;marginBottom=0;whiteSpace=wrap;html=1;" parent="1" vertex="1">
          <mxGeometry x="900" y="-1400" width="350" height="200" as="geometry" />
        </mxCell>
        <mxCell id="U78_huqTYP2t_q-OurNE-10" value="- INFO: String&lt;div&gt;- SERVICES_PHONE: String&lt;/div&gt;" style="text;strokeColor=none;fillColor=none;align=left;verticalAlign=top;spacingLeft=4;spacingRight=4;overflow=hidden;rotatable=0;points=[[0,0.5],[1,0.5]];portConstraint=eastwest;whiteSpace=wrap;html=1;" parent="U78_huqTYP2t_q-OurNE-9" vertex="1">
          <mxGeometry y="26" width="350" height="64" as="geometry" />
        </mxCell>
        <mxCell id="U78_huqTYP2t_q-OurNE-11" value="" style="line;strokeWidth=1;fillColor=none;align=left;verticalAlign=middle;spacingTop=-1;spacingLeft=3;spacingRight=3;rotatable=0;labelPosition=right;points=[];portConstraint=eastwest;strokeColor=inherit;" parent="U78_huqTYP2t_q-OurNE-9" vertex="1">
          <mxGeometry y="90" width="350" height="8" as="geometry" />
        </mxCell>
        <mxCell id="U78_huqTYP2t_q-OurNE-12" value="&lt;div&gt;+ Inquirer(firstName: String, lastName: String, SERVICES_PHONE: String, INFO: String)&lt;/div&gt;&lt;div&gt;&lt;br&gt;&lt;/div&gt;&lt;div&gt;+ getInfo(): String&lt;/div&gt;&lt;div&gt;+ getServicesPhone():String&lt;/div&gt;" style="text;strokeColor=none;fillColor=none;align=left;verticalAlign=top;spacingLeft=4;spacingRight=4;overflow=hidden;rotatable=0;points=[[0,0.5],[1,0.5]];portConstraint=eastwest;whiteSpace=wrap;html=1;" parent="U78_huqTYP2t_q-OurNE-9" vertex="1">
          <mxGeometry y="98" width="350" height="102" as="geometry" />
        </mxCell>
        <mxCell id="U78_huqTYP2t_q-OurNE-13" value="Location" style="swimlane;fontStyle=1;align=center;verticalAlign=top;childLayout=stackLayout;horizontal=1;startSize=26;horizontalStack=0;resizeParent=1;resizeParentMax=0;resizeLast=0;collapsible=1;marginBottom=0;whiteSpace=wrap;html=1;" parent="1" vertex="1">
          <mxGeometry x="2230" y="-1680" width="310" height="330" as="geometry" />
        </mxCell>
        <mxCell id="U78_huqTYP2t_q-OurNE-14" value="&lt;div&gt;- name: String&lt;/div&gt;&lt;div&gt;- address: String&lt;/div&gt;&lt;div&gt;- occupants: ArrayList&amp;lt;T&amp;gt;&lt;/div&gt;&lt;div&gt;&lt;br&gt;&lt;/div&gt;" style="text;strokeColor=none;fillColor=none;align=left;verticalAlign=top;spacingLeft=4;spacingRight=4;overflow=hidden;rotatable=0;points=[[0,0.5],[1,0.5]];portConstraint=eastwest;whiteSpace=wrap;html=1;" parent="U78_huqTYP2t_q-OurNE-13" vertex="1">
          <mxGeometry y="26" width="310" height="94" as="geometry" />
        </mxCell>
        <mxCell id="U78_huqTYP2t_q-OurNE-15" value="" style="line;strokeWidth=1;fillColor=none;align=left;verticalAlign=middle;spacingTop=-1;spacingLeft=3;spacingRight=3;rotatable=0;labelPosition=right;points=[];portConstraint=eastwest;strokeColor=inherit;" parent="U78_huqTYP2t_q-OurNE-13" vertex="1">
          <mxGeometry y="120" width="310" height="8" as="geometry" />
        </mxCell>
        <mxCell id="U78_huqTYP2t_q-OurNE-16" value="+ Location(name:String, address:String)&lt;div&gt;&lt;br&gt;+ getName(): String&lt;/div&gt;&lt;div&gt;+ getAddress(): String&lt;/div&gt;&lt;div&gt;+ getOccupants(): ArrayList&amp;lt;T&amp;gt;&lt;/div&gt;&lt;div&gt;&lt;br&gt;+ setName(name: String): void&lt;br&gt;+ setAddress(address: String): void&lt;br&gt;+ setOccupants(occupants: ArrayList&amp;lt;T&amp;gt;): void&lt;/div&gt;&lt;div&gt;&lt;br&gt;+ addOccupant(occupant: T)&lt;br&gt;+ removeOccupant(occupant: T)&lt;br&gt;&lt;br&gt;&lt;/div&gt;" style="text;strokeColor=none;fillColor=none;align=left;verticalAlign=top;spacingLeft=4;spacingRight=4;overflow=hidden;rotatable=0;points=[[0,0.5],[1,0.5]];portConstraint=eastwest;whiteSpace=wrap;html=1;" parent="U78_huqTYP2t_q-OurNE-13" vertex="1">
          <mxGeometry y="128" width="310" height="202" as="geometry" />
        </mxCell>
        <mxCell id="U78_huqTYP2t_q-OurNE-17" value="Shelter" style="swimlane;fontStyle=1;align=center;verticalAlign=top;childLayout=stackLayout;horizontal=1;startSize=26;horizontalStack=0;resizeParent=1;resizeParentMax=0;resizeLast=0;collapsible=1;marginBottom=0;whiteSpace=wrap;html=1;" parent="1" vertex="1">
          <mxGeometry x="2700" y="-1510" width="300" height="230" as="geometry" />
        </mxCell>
        <mxCell id="U78_huqTYP2t_q-OurNE-18" value="- occupants: ArrayList&amp;lt;DisasterVictim&amp;gt;&lt;div&gt;- supplies: ArrayList&amp;lt;Supply&amp;gt;&lt;br&gt;&lt;/div&gt;" style="text;strokeColor=none;fillColor=none;align=left;verticalAlign=top;spacingLeft=4;spacingRight=4;overflow=hidden;rotatable=0;points=[[0,0.5],[1,0.5]];portConstraint=eastwest;whiteSpace=wrap;html=1;" parent="U78_huqTYP2t_q-OurNE-17" vertex="1">
          <mxGeometry y="26" width="300" height="54" as="geometry" />
        </mxCell>
        <mxCell id="U78_huqTYP2t_q-OurNE-19" value="" style="line;strokeWidth=1;fillColor=none;align=left;verticalAlign=middle;spacingTop=-1;spacingLeft=3;spacingRight=3;rotatable=0;labelPosition=right;points=[];portConstraint=eastwest;strokeColor=inherit;" parent="U78_huqTYP2t_q-OurNE-17" vertex="1">
          <mxGeometry y="80" width="300" height="8" as="geometry" />
        </mxCell>
        <mxCell id="U78_huqTYP2t_q-OurNE-20" value="&lt;div&gt;+ Shelter(&lt;span style=&quot;background-color: initial;&quot;&gt;name:String, address:String&lt;/span&gt;&lt;span style=&quot;background-color: initial;&quot;&gt;)&lt;/span&gt;&lt;/div&gt;&lt;div&gt;&lt;br&gt;&lt;/div&gt;+ getSupplies(): ArrayList&amp;lt;Supply&amp;gt;&lt;br&gt;+ setSupplies(supplies: ArrayList&amp;lt;Supply&amp;gt;): void&lt;div&gt;&lt;br&gt;&lt;/div&gt;&lt;div&gt;+ addSupply(supply: Supply): void&lt;br&gt;+ removeSupply(supply: Supply): void&lt;br&gt;&lt;/div&gt;" style="text;strokeColor=none;fillColor=none;align=left;verticalAlign=top;spacingLeft=4;spacingRight=4;overflow=hidden;rotatable=0;points=[[0,0.5],[1,0.5]];portConstraint=eastwest;whiteSpace=wrap;html=1;" parent="U78_huqTYP2t_q-OurNE-17" vertex="1">
          <mxGeometry y="88" width="300" height="142" as="geometry" />
        </mxCell>
        <mxCell id="U78_huqTYP2t_q-OurNE-21" value="Extends" style="endArrow=block;endSize=16;endFill=0;html=1;rounded=0;" parent="1" source="U78_huqTYP2t_q-OurNE-5" target="U78_huqTYP2t_q-OurNE-4" edge="1">
          <mxGeometry width="160" relative="1" as="geometry">
            <mxPoint x="2160" y="-560" as="sourcePoint" />
            <mxPoint x="2120" y="-660" as="targetPoint" />
          </mxGeometry>
        </mxCell>
        <mxCell id="U78_huqTYP2t_q-OurNE-22" value="Extends" style="endArrow=block;endSize=16;endFill=0;html=1;rounded=0;" parent="1" source="U78_huqTYP2t_q-OurNE-9" target="U78_huqTYP2t_q-OurNE-1" edge="1">
          <mxGeometry width="160" relative="1" as="geometry">
            <mxPoint x="1740" y="-1144" as="sourcePoint" />
            <mxPoint x="2060" y="-1210" as="targetPoint" />
          </mxGeometry>
        </mxCell>
        <mxCell id="U78_huqTYP2t_q-OurNE-23" value="Extends" style="endArrow=block;endSize=16;endFill=0;html=1;rounded=0;" parent="1" source="U78_huqTYP2t_q-OurNE-17" target="U78_huqTYP2t_q-OurNE-13" edge="1">
          <mxGeometry width="160" relative="1" as="geometry">
            <mxPoint x="2719.5" y="-1250" as="sourcePoint" />
            <mxPoint x="2719.5" y="-1330" as="targetPoint" />
          </mxGeometry>
        </mxCell>
        <mxCell id="U78_huqTYP2t_q-OurNE-28" value="&lt;div&gt;&amp;lt;&amp;lt;enumeration&amp;gt;&amp;gt;&lt;/div&gt;DietaryRestrictions" style="swimlane;fontStyle=1;align=center;verticalAlign=top;childLayout=stackLayout;horizontal=1;startSize=40;horizontalStack=0;resizeParent=1;resizeParentMax=0;resizeLast=0;collapsible=1;marginBottom=0;whiteSpace=wrap;html=1;" parent="1" vertex="1">
          <mxGeometry x="2400" y="-1940" width="150" height="192" as="geometry" />
        </mxCell>
        <mxCell id="U78_huqTYP2t_q-OurNE-29" value=" AVML&lt;br&gt;DBML&lt;br&gt;GFML&lt;br&gt;KSML&lt;br&gt;LSML&lt;br&gt;MOML&lt;br&gt;PFML&lt;br&gt;VGML&lt;br&gt;VJML" style="text;strokeColor=none;fillColor=none;align=left;verticalAlign=top;spacingLeft=4;spacingRight=4;overflow=hidden;rotatable=0;points=[[0,0.5],[1,0.5]];portConstraint=eastwest;whiteSpace=wrap;html=1;" parent="U78_huqTYP2t_q-OurNE-28" vertex="1">
          <mxGeometry y="40" width="150" height="144" as="geometry" />
        </mxCell>
        <mxCell id="U78_huqTYP2t_q-OurNE-30" value="" style="line;strokeWidth=1;fillColor=none;align=left;verticalAlign=middle;spacingTop=-1;spacingLeft=3;spacingRight=3;rotatable=0;labelPosition=right;points=[];portConstraint=eastwest;strokeColor=inherit;" parent="U78_huqTYP2t_q-OurNE-28" vertex="1">
          <mxGeometry y="184" width="150" height="8" as="geometry" />
        </mxCell>
        <mxCell id="U78_huqTYP2t_q-OurNE-32" value="&lt;div&gt;&lt;i style=&quot;background-color: initial;&quot;&gt;EmergencyReliefService&lt;/i&gt;&lt;br&gt;&lt;/div&gt;" style="swimlane;fontStyle=1;align=center;verticalAlign=top;childLayout=stackLayout;horizontal=1;startSize=40;horizontalStack=0;resizeParent=1;resizeParentMax=0;resizeLast=0;collapsible=1;marginBottom=0;whiteSpace=wrap;html=1;" parent="1" vertex="1">
          <mxGeometry x="1630" y="-2340" width="390" height="390" as="geometry" />
        </mxCell>
        <mxCell id="U78_huqTYP2t_q-OurNE-33" value="&lt;div&gt;&lt;i&gt;- inquirer: Person&lt;/i&gt;&lt;/div&gt;&lt;div&gt;&lt;i style=&quot;background-color: initial;&quot;&gt;- dateOflnquiry: String&lt;/i&gt;&lt;br&gt;&lt;/div&gt;&lt;div&gt;&lt;i style=&quot;background-color: initial;&quot;&gt;- missingPersons: PriorityQueue&amp;lt;Person&amp;gt;&lt;/i&gt;&lt;/div&gt;&lt;div&gt;&lt;i&gt;- infoProvided: String&lt;/i&gt;&lt;/div&gt;&lt;div&gt;&lt;br&gt;&lt;/div&gt;" style="text;strokeColor=none;fillColor=none;align=left;verticalAlign=top;spacingLeft=4;spacingRight=4;overflow=hidden;rotatable=0;points=[[0,0.5],[1,0.5]];portConstraint=eastwest;whiteSpace=wrap;html=1;" parent="U78_huqTYP2t_q-OurNE-32" vertex="1">
          <mxGeometry y="40" width="390" height="80" as="geometry" />
        </mxCell>
        <mxCell id="U78_huqTYP2t_q-OurNE-34" value="" style="line;strokeWidth=1;fillColor=none;align=left;verticalAlign=middle;spacingTop=-1;spacingLeft=3;spacingRight=3;rotatable=0;labelPosition=right;points=[];portConstraint=eastwest;strokeColor=inherit;" parent="U78_huqTYP2t_q-OurNE-32" vertex="1">
          <mxGeometry y="120" width="390" height="8" as="geometry" />
        </mxCell>
        <mxCell id="U78_huqTYP2t_q-OurNE-35" value="&lt;i&gt;+ EmergencyReliefService(inquirer: Inquirer, missingPersons: PriorityQueue&amp;lt;Person&amp;gt;, dateOfInquiry:String, infoProvided: String)&lt;/i&gt;&lt;div&gt;&lt;i&gt;&lt;br&gt;&lt;/i&gt;&lt;/div&gt;&lt;div&gt;&lt;i&gt;&lt;br&gt;+ getInquirer(): Person&lt;/i&gt;&lt;/div&gt;&lt;div&gt;&lt;i&gt;+ getMissingPersons(): PriorityQueue&amp;lt;Person&amp;gt;&lt;/i&gt;&lt;/div&gt;&lt;div&gt;+ getDateOfInquiry(): String&lt;br&gt;&lt;/div&gt;&lt;div&gt;+ getInfoProvided(): String&lt;br&gt;&lt;/div&gt;&lt;div&gt;+ getLogDetails(): String&lt;br&gt;&lt;/div&gt;&lt;div&gt;&lt;i&gt;&lt;br&gt;&lt;/i&gt;&lt;/div&gt;&lt;div&gt;&lt;i&gt;+ setInquirer(inquirer: Person)&lt;/i&gt;&lt;br&gt;&lt;i&gt;+ setMissingPersons(missingPersons: PriorityQueue&amp;lt;Person&amp;gt;)&lt;/i&gt;&lt;br&gt;+ setDateOfInquiry(dateOfInquiry: String)&lt;br&gt;+ setInfoProvided(infoProvided: String)&lt;/div&gt;&lt;div&gt;&lt;br&gt;&lt;/div&gt;&lt;div&gt;&lt;div&gt;+ addMissingPerson(person: Person): void&lt;/div&gt;&lt;div&gt;+ removeMissingPerson(person: Person): void&lt;/div&gt;&lt;/div&gt;" style="text;strokeColor=none;fillColor=none;align=left;verticalAlign=top;spacingLeft=4;spacingRight=4;overflow=hidden;rotatable=0;points=[[0,0.5],[1,0.5]];portConstraint=eastwest;whiteSpace=wrap;html=1;" parent="U78_huqTYP2t_q-OurNE-32" vertex="1">
          <mxGeometry y="128" width="390" height="262" as="geometry" />
        </mxCell>
        <mxCell id="U78_huqTYP2t_q-OurNE-36" value="MissingPersonReliefService" style="swimlane;fontStyle=1;align=center;verticalAlign=top;childLayout=stackLayout;horizontal=1;startSize=26;horizontalStack=0;resizeParent=1;resizeParentMax=0;resizeLast=0;collapsible=1;marginBottom=0;whiteSpace=wrap;html=1;" parent="1" vertex="1">
          <mxGeometry x="1630" y="-1860" width="460" height="430" as="geometry" />
        </mxCell>
        <mxCell id="U78_huqTYP2t_q-OurNE-37" value="&lt;div&gt;- inquirer: Inquirer&lt;/div&gt;&lt;div&gt;&lt;span style=&quot;background-color: initial;&quot;&gt;- dateOflnquiry: String&lt;/span&gt;&lt;br&gt;&lt;/div&gt;&lt;div&gt;&lt;span style=&quot;background-color: initial;&quot;&gt;- missingPersons: PriorityQueue&amp;lt;DisasterVictim&amp;gt;&lt;/span&gt;&lt;/div&gt;&lt;div&gt;- infoProvided: String&lt;/div&gt;" style="text;strokeColor=none;fillColor=none;align=left;verticalAlign=top;spacingLeft=4;spacingRight=4;overflow=hidden;rotatable=0;points=[[0,0.5],[1,0.5]];portConstraint=eastwest;whiteSpace=wrap;html=1;" parent="U78_huqTYP2t_q-OurNE-36" vertex="1">
          <mxGeometry y="26" width="460" height="104" as="geometry" />
        </mxCell>
        <mxCell id="U78_huqTYP2t_q-OurNE-38" value="" style="line;strokeWidth=1;fillColor=none;align=left;verticalAlign=middle;spacingTop=-1;spacingLeft=3;spacingRight=3;rotatable=0;labelPosition=right;points=[];portConstraint=eastwest;strokeColor=inherit;" parent="U78_huqTYP2t_q-OurNE-36" vertex="1">
          <mxGeometry y="130" width="460" height="8" as="geometry" />
        </mxCell>
        <mxCell id="U78_huqTYP2t_q-OurNE-39" value="+ MissingPersonReliefService(inquirer: Inquirer, missingPersons: PriorityQueue&amp;lt;DisasterVictim&amp;gt;,&lt;br&gt;dateOfInquiry:String, infoProvided: String)&lt;div&gt;&lt;br&gt;&lt;/div&gt;&lt;div&gt;+ parseDate(date: String, for: String): String&lt;/div&gt;&lt;div&gt;&lt;br&gt;+ getInquirer(): Inquirer&lt;/div&gt;&lt;div&gt;+ getMissingPersons(): PriorityQueue&amp;lt;DisasterVictim&amp;gt;&lt;/div&gt;&lt;div&gt;+ getDateOfInquiry(): String&lt;br&gt;&lt;/div&gt;&lt;div&gt;+ getInfoProvided(): String&lt;br&gt;&lt;/div&gt;&lt;div&gt;+ getLogDetails(): String&lt;br&gt;&lt;/div&gt;&lt;div&gt;&lt;br&gt;&lt;/div&gt;&lt;div&gt;+ setInquirer(inquirer: Inquirer)&lt;br&gt;+ setMissingPerson(missingPerson: DisasterVictim)&lt;br&gt;+ setDateOfInquiry(dateOfInquiry: String)&lt;br&gt;+ setInfoProvided(infoProvided: String)&lt;/div&gt;&lt;div&gt;&lt;br&gt;&lt;/div&gt;&lt;div&gt;+ addMissingPerson(person: DisasterVictim): void&lt;/div&gt;&lt;div&gt;+ removeMissingPerson(person: DisasterVictim): void&lt;/div&gt;" style="text;strokeColor=none;fillColor=none;align=left;verticalAlign=top;spacingLeft=4;spacingRight=4;overflow=hidden;rotatable=0;points=[[0,0.5],[1,0.5]];portConstraint=eastwest;whiteSpace=wrap;html=1;" parent="U78_huqTYP2t_q-OurNE-36" vertex="1">
          <mxGeometry y="138" width="460" height="292" as="geometry" />
        </mxCell>
        <mxCell id="U78_huqTYP2t_q-OurNE-40" value="" style="endArrow=block;dashed=1;endFill=0;endSize=12;html=1;rounded=0;" parent="1" source="U78_huqTYP2t_q-OurNE-36" target="U78_huqTYP2t_q-OurNE-66" edge="1">
          <mxGeometry width="160" relative="1" as="geometry">
            <mxPoint x="1550" y="-1730" as="sourcePoint" />
            <mxPoint x="1500" y="-1780" as="targetPoint" />
          </mxGeometry>
        </mxCell>
        <mxCell id="U78_huqTYP2t_q-OurNE-49" value="Family" style="swimlane;fontStyle=1;align=center;verticalAlign=top;childLayout=stackLayout;horizontal=1;startSize=26;horizontalStack=0;resizeParent=1;resizeParentMax=0;resizeLast=0;collapsible=1;marginBottom=0;whiteSpace=wrap;html=1;" parent="1" vertex="1">
          <mxGeometry x="2450" y="-1020" width="380" height="390" as="geometry" />
        </mxCell>
        <mxCell id="U78_huqTYP2t_q-OurNE-50" value="&lt;div&gt;- familyName: String&lt;/div&gt;&lt;div&gt;&lt;span style=&quot;background-color: initial;&quot;&gt;- siblings: ArrayList&amp;lt;Person&amp;gt;&lt;/span&gt;&lt;/div&gt;&lt;div&gt;&lt;span style=&quot;background-color: initial;&quot;&gt;- parents: ArrayList&amp;lt;Person&amp;gt;&lt;/span&gt;&lt;/div&gt;" style="text;strokeColor=none;fillColor=none;align=left;verticalAlign=top;spacingLeft=4;spacingRight=4;overflow=hidden;rotatable=0;points=[[0,0.5],[1,0.5]];portConstraint=eastwest;whiteSpace=wrap;html=1;" parent="U78_huqTYP2t_q-OurNE-49" vertex="1">
          <mxGeometry y="26" width="380" height="104" as="geometry" />
        </mxCell>
        <mxCell id="U78_huqTYP2t_q-OurNE-51" value="" style="line;strokeWidth=1;fillColor=none;align=left;verticalAlign=middle;spacingTop=-1;spacingLeft=3;spacingRight=3;rotatable=0;labelPosition=right;points=[];portConstraint=eastwest;strokeColor=inherit;" parent="U78_huqTYP2t_q-OurNE-49" vertex="1">
          <mxGeometry y="130" width="380" height="8" as="geometry" />
        </mxCell>
        <mxCell id="U78_huqTYP2t_q-OurNE-52" value="+ Family(familyName: String, siblings: ArrayList&amp;lt;Person&amp;gt;, parents: ArrayList&amp;lt;Person&amp;gt;)&lt;div&gt;&lt;br&gt;&lt;/div&gt;&lt;div&gt;+ getFamilyName(): String&lt;/div&gt;&lt;div&gt;+ getSiblings(): ArrayList&amp;lt;Person&amp;gt;&lt;/div&gt;&lt;div&gt;+ getParents(): ArrayList&amp;lt;Person&amp;gt;&lt;/div&gt;&lt;div&gt;&lt;br&gt;&lt;/div&gt;&lt;div&gt;+ getSiblingsOf(child: Person): ArrayList&amp;lt;Person&amp;gt;&lt;/div&gt;&lt;div&gt;+ getChildrenOf(parent: Person): ArrayList&amp;lt;Person&amp;gt;&lt;/div&gt;&lt;div&gt;&lt;div&gt;&lt;br&gt;&lt;/div&gt;&lt;/div&gt;&lt;div&gt;+ addSibling(sibling: Person): void&lt;/div&gt;&lt;div&gt;+ removeSibling(sibling: Person): void&lt;/div&gt;&lt;div&gt;&lt;br&gt;&lt;/div&gt;&lt;div&gt;+ addParent(parent: Person): void&lt;/div&gt;&lt;div&gt;+ removeParent(parent: Person): void&lt;/div&gt;" style="text;strokeColor=none;fillColor=none;align=left;verticalAlign=top;spacingLeft=4;spacingRight=4;overflow=hidden;rotatable=0;points=[[0,0.5],[1,0.5]];portConstraint=eastwest;whiteSpace=wrap;html=1;" parent="U78_huqTYP2t_q-OurNE-49" vertex="1">
          <mxGeometry y="138" width="380" height="252" as="geometry" />
        </mxCell>
        <mxCell id="U78_huqTYP2t_q-OurNE-61" value="&amp;lt;&amp;lt;Interface&amp;gt;&amp;gt;&lt;div&gt;&lt;i&gt;UpdateVictim&lt;/i&gt;&lt;/div&gt;" style="swimlane;fontStyle=1;align=center;verticalAlign=top;childLayout=stackLayout;horizontal=1;startSize=40;horizontalStack=0;resizeParent=1;resizeParentMax=0;resizeLast=0;collapsible=1;marginBottom=0;whiteSpace=wrap;html=1;" parent="1" vertex="1">
          <mxGeometry x="2550" y="-480" width="360" height="290" as="geometry" />
        </mxCell>
        <mxCell id="U78_huqTYP2t_q-OurNE-63" value="" style="line;strokeWidth=1;fillColor=none;align=left;verticalAlign=middle;spacingTop=-1;spacingLeft=3;spacingRight=3;rotatable=0;labelPosition=right;points=[];portConstraint=eastwest;strokeColor=inherit;" parent="U78_huqTYP2t_q-OurNE-61" vertex="1">
          <mxGeometry y="40" width="360" height="8" as="geometry" />
        </mxCell>
        <mxCell id="U78_huqTYP2t_q-OurNE-64" value="&lt;div&gt;&lt;i style=&quot;background-color: initial;&quot;&gt;+ getMedicalRecords(): ArrayList&amp;lt;MedicalRecord&amp;gt;&lt;/i&gt;&lt;br&gt;&lt;/div&gt;&lt;div&gt;&lt;div&gt;&lt;i&gt;+ getEntryDate(): String&lt;/i&gt;&lt;/div&gt;&lt;div&gt;&lt;i&gt;+ getAssignedSociallD(): int&lt;/i&gt;&lt;/div&gt;&lt;div&gt;&lt;i&gt;+ getPersonalBelongings: ArrayList&amp;lt;Supply&amp;gt;&lt;/i&gt;&lt;/div&gt;&lt;/div&gt;&lt;div&gt;&lt;div&gt;&lt;i&gt;+ getMissingStatus(): Boolean&lt;/i&gt;&lt;/div&gt;&lt;div&gt;&lt;/div&gt;&lt;div&gt;&lt;i&gt;&lt;br&gt;&lt;/i&gt;&lt;/div&gt;&lt;div&gt;&lt;i&gt;+ setMedicalRecords(medicalRecords: ArrayList&amp;lt;MedicalRecord&amp;gt;): void&lt;/i&gt;&lt;/div&gt;&lt;div&gt;&lt;i&gt;+ setPersonalBelongings(supplies: ArrayList&amp;lt;Supply&amp;gt;)&lt;/i&gt;&lt;/div&gt;&lt;/div&gt;&lt;div&gt;&lt;i&gt;+ setMissingStatus(missing: Boolean): void&lt;br&gt;&lt;/i&gt;&lt;/div&gt;&lt;div&gt;&lt;i&gt;&lt;br&gt;&lt;/i&gt;&lt;/div&gt;&lt;div&gt;&lt;div&gt;&lt;i&gt;+ addPersonalBelonging(supply: Supply): void&lt;/i&gt;&lt;/div&gt;&lt;div&gt;&lt;i&gt;+ removePersonalBelonging(supply: Supply): void&lt;/i&gt;&lt;/div&gt;&lt;/div&gt;&lt;div&gt;&lt;i&gt;+ addMedicalRecord(medicalRecord: MedicalRecord): void&lt;br&gt;&lt;/i&gt;&lt;/div&gt;&lt;div&gt;&lt;div&gt;&lt;i&gt;+ removeMedicalRecord(medicalRecord: MedicalRecord): void&lt;/i&gt;&lt;/div&gt;&lt;/div&gt;&lt;div&gt;&lt;br&gt;&lt;/div&gt;" style="text;strokeColor=none;fillColor=none;align=left;verticalAlign=top;spacingLeft=4;spacingRight=4;overflow=hidden;rotatable=0;points=[[0,0.5],[1,0.5]];portConstraint=eastwest;whiteSpace=wrap;html=1;" parent="U78_huqTYP2t_q-OurNE-61" vertex="1">
          <mxGeometry y="48" width="360" height="242" as="geometry" />
        </mxCell>
        <mxCell id="U78_huqTYP2t_q-OurNE-65" value="Extends" style="endArrow=block;endSize=16;endFill=0;html=1;rounded=0;" parent="1" source="U78_huqTYP2t_q-OurNE-36" target="U78_huqTYP2t_q-OurNE-32" edge="1">
          <mxGeometry width="160" relative="1" as="geometry">
            <mxPoint x="1820" y="-1700" as="sourcePoint" />
            <mxPoint x="1810" y="-1820" as="targetPoint" />
          </mxGeometry>
        </mxCell>
        <mxCell id="U78_huqTYP2t_q-OurNE-66" value="&amp;lt;&amp;lt;interface&amp;gt;&amp;gt;&lt;div&gt;&lt;i&gt;InquirerQueries&lt;/i&gt;&lt;/div&gt;" style="swimlane;fontStyle=1;align=center;verticalAlign=top;childLayout=stackLayout;horizontal=1;startSize=40;horizontalStack=0;resizeParent=1;resizeParentMax=0;resizeLast=0;collapsible=1;marginBottom=0;whiteSpace=wrap;html=1;" parent="1" vertex="1">
          <mxGeometry x="1100" y="-1870" width="370" height="350" as="geometry" />
        </mxCell>
        <mxCell id="U78_huqTYP2t_q-OurNE-67" value="" style="line;strokeWidth=1;fillColor=none;align=left;verticalAlign=middle;spacingTop=-1;spacingLeft=3;spacingRight=3;rotatable=0;labelPosition=right;points=[];portConstraint=eastwest;strokeColor=inherit;" parent="U78_huqTYP2t_q-OurNE-66" vertex="1">
          <mxGeometry y="40" width="370" height="8" as="geometry" />
        </mxCell>
        <mxCell id="U78_huqTYP2t_q-OurNE-68" value="&lt;div&gt;&lt;i&gt;+ getInquirer(): Inquirer&lt;/i&gt;&lt;/div&gt;&lt;div&gt;&lt;i&gt;+ getMissingPersons(): PriorityQueue&amp;lt;DisasterVictim&amp;gt;&lt;/i&gt;&lt;/div&gt;&lt;div&gt;&lt;i&gt;+ getDateOfInquiry(): String&lt;br&gt;&lt;/i&gt;&lt;/div&gt;&lt;div&gt;&lt;i&gt;+ getInfoProvided(): String&lt;br&gt;&lt;/i&gt;&lt;/div&gt;&lt;div&gt;&lt;i&gt;+ getLogDetails(): String&lt;br&gt;&lt;/i&gt;&lt;/div&gt;&lt;div&gt;&lt;i&gt;&lt;br&gt;&lt;/i&gt;&lt;/div&gt;&lt;div&gt;&lt;i&gt;+ setInquirer(inquirer: Inquirer)&lt;br&gt;+ setMissingPerson(missingPerson: DisasterVictim)&lt;br&gt;+ setDateOfInquiry(dateOfInquiry: String)&lt;br&gt;+ setInfoProvided(infoProvided: String)&lt;/i&gt;&lt;/div&gt;&lt;div&gt;&lt;i&gt;&lt;br&gt;&lt;/i&gt;&lt;/div&gt;&lt;div&gt;&lt;i&gt;+ addMissingPerson(person: DisasterVictim): void&lt;/i&gt;&lt;/div&gt;&lt;div&gt;&lt;i&gt;+ removeMissingPerson(person: DisasterVictim): void&lt;/i&gt;&lt;/div&gt;" style="text;strokeColor=none;fillColor=none;align=left;verticalAlign=top;spacingLeft=4;spacingRight=4;overflow=hidden;rotatable=0;points=[[0,0.5],[1,0.5]];portConstraint=eastwest;whiteSpace=wrap;html=1;" parent="U78_huqTYP2t_q-OurNE-66" vertex="1">
          <mxGeometry y="48" width="370" height="302" as="geometry" />
        </mxCell>
        <mxCell id="U78_huqTYP2t_q-OurNE-70" value="IllegalArgumentException" style="swimlane;fontStyle=1;align=center;verticalAlign=top;childLayout=stackLayout;horizontal=1;startSize=26;horizontalStack=0;resizeParent=1;resizeParentMax=0;resizeLast=0;collapsible=1;marginBottom=0;whiteSpace=wrap;html=1;" parent="1" vertex="1">
          <mxGeometry x="1725" y="-550" width="200" height="60" as="geometry" />
        </mxCell>
        <mxCell id="U78_huqTYP2t_q-OurNE-72" value="" style="line;strokeWidth=1;fillColor=none;align=left;verticalAlign=middle;spacingTop=-1;spacingLeft=3;spacingRight=3;rotatable=0;labelPosition=right;points=[];portConstraint=eastwest;strokeColor=inherit;" parent="U78_huqTYP2t_q-OurNE-70" vertex="1">
          <mxGeometry y="26" width="200" height="34" as="geometry" />
        </mxCell>
        <mxCell id="U78_huqTYP2t_q-OurNE-74" value="IllegalArgumentException" style="swimlane;fontStyle=1;align=center;verticalAlign=top;childLayout=stackLayout;horizontal=1;startSize=26;horizontalStack=0;resizeParent=1;resizeParentMax=0;resizeLast=0;collapsible=1;marginBottom=0;whiteSpace=wrap;html=1;" parent="1" vertex="1">
          <mxGeometry x="1185" y="-930" width="200" height="60" as="geometry" />
        </mxCell>
        <mxCell id="U78_huqTYP2t_q-OurNE-75" value="" style="line;strokeWidth=1;fillColor=none;align=left;verticalAlign=middle;spacingTop=-1;spacingLeft=3;spacingRight=3;rotatable=0;labelPosition=right;points=[];portConstraint=eastwest;strokeColor=inherit;" parent="U78_huqTYP2t_q-OurNE-74" vertex="1">
          <mxGeometry y="26" width="200" height="34" as="geometry" />
        </mxCell>
        <mxCell id="U78_huqTYP2t_q-OurNE-76" value="" style="endArrow=none;html=1;edgeStyle=orthogonalEdgeStyle;rounded=0;exitX=0.002;exitY=0.34;exitDx=0;exitDy=0;exitPerimeter=0;entryX=0.998;entryY=0.311;entryDx=0;entryDy=0;entryPerimeter=0;" parent="1" source="U78_huqTYP2t_q-OurNE-50" target="U78_huqTYP2t_q-OurNE-4" edge="1">
          <mxGeometry relative="1" as="geometry">
            <mxPoint x="2430" y="-960" as="sourcePoint" />
            <mxPoint x="2380" y="-870" as="targetPoint" />
          </mxGeometry>
        </mxCell>
        <mxCell id="U78_huqTYP2t_q-OurNE-80" value="0...1" style="edgeLabel;html=1;align=center;verticalAlign=middle;resizable=0;points=[];" parent="U78_huqTYP2t_q-OurNE-76" vertex="1" connectable="0">
          <mxGeometry x="-0.8751" y="-1" relative="1" as="geometry">
            <mxPoint x="-3" as="offset" />
          </mxGeometry>
        </mxCell>
        <mxCell id="U78_huqTYP2t_q-OurNE-81" value="0...*" style="edgeLabel;html=1;align=center;verticalAlign=middle;resizable=0;points=[];" parent="U78_huqTYP2t_q-OurNE-76" vertex="1" connectable="0">
          <mxGeometry x="0.8719" y="1" relative="1" as="geometry">
            <mxPoint as="offset" />
          </mxGeometry>
        </mxCell>
        <mxCell id="U78_huqTYP2t_q-OurNE-79" value="" style="endArrow=block;dashed=1;endFill=0;endSize=12;html=1;rounded=0;" parent="1" source="U78_huqTYP2t_q-OurNE-5" target="U78_huqTYP2t_q-OurNE-61" edge="1">
          <mxGeometry width="160" relative="1" as="geometry">
            <mxPoint x="2420" y="-450" as="sourcePoint" />
            <mxPoint x="2580" y="-450" as="targetPoint" />
          </mxGeometry>
        </mxCell>
        <mxCell id="U78_huqTYP2t_q-OurNE-82" value="throws" style="endArrow=open;endSize=12;dashed=1;html=1;rounded=0;exitX=-0.002;exitY=0.047;exitDx=0;exitDy=0;exitPerimeter=0;" parent="1" source="U78_huqTYP2t_q-OurNE-8" target="U78_huqTYP2t_q-OurNE-70" edge="1">
          <mxGeometry width="160" relative="1" as="geometry">
            <mxPoint x="1850" y="-350" as="sourcePoint" />
            <mxPoint x="2010" y="-350" as="targetPoint" />
          </mxGeometry>
        </mxCell>
        <mxCell id="U78_huqTYP2t_q-OurNE-85" value="throws" style="endArrow=open;endSize=12;dashed=1;html=1;rounded=0;exitX=0.002;exitY=0.643;exitDx=0;exitDy=0;exitPerimeter=0;" parent="1" source="U78_huqTYP2t_q-OurNE-4" target="U78_huqTYP2t_q-OurNE-74" edge="1">
          <mxGeometry width="160" relative="1" as="geometry">
            <mxPoint x="1930" y="-850" as="sourcePoint" />
            <mxPoint x="1811" y="-829" as="targetPoint" />
          </mxGeometry>
        </mxCell>
        <mxCell id="U78_huqTYP2t_q-OurNE-86" value="&amp;lt;&amp;lt;interface&amp;gt;&amp;gt;&lt;div&gt;&lt;i&gt;EditFamily&lt;/i&gt;&lt;/div&gt;" style="swimlane;fontStyle=1;align=center;verticalAlign=top;childLayout=stackLayout;horizontal=1;startSize=40;horizontalStack=0;resizeParent=1;resizeParentMax=0;resizeLast=0;collapsible=1;marginBottom=0;whiteSpace=wrap;html=1;" parent="1" vertex="1">
          <mxGeometry x="2960" y="-980" width="300" height="260" as="geometry" />
        </mxCell>
        <mxCell id="U78_huqTYP2t_q-OurNE-87" value="" style="line;strokeWidth=1;fillColor=none;align=left;verticalAlign=middle;spacingTop=-1;spacingLeft=3;spacingRight=3;rotatable=0;labelPosition=right;points=[];portConstraint=eastwest;strokeColor=inherit;" parent="U78_huqTYP2t_q-OurNE-86" vertex="1">
          <mxGeometry y="40" width="300" height="8" as="geometry" />
        </mxCell>
        <mxCell id="U78_huqTYP2t_q-OurNE-88" value="&lt;div&gt;&lt;i&gt;+ getFamilyName(): String&lt;/i&gt;&lt;/div&gt;&lt;div&gt;&lt;i&gt;+ getSiblings(): ArrayList&amp;lt;Person&amp;gt;&lt;/i&gt;&lt;/div&gt;&lt;div&gt;&lt;i&gt;+ getParents(): ArrayList&amp;lt;Person&amp;gt;&lt;/i&gt;&lt;/div&gt;&lt;div&gt;&lt;i&gt;&lt;br&gt;&lt;/i&gt;&lt;/div&gt;&lt;div&gt;&lt;i&gt;+ getSiblingsOf(child: Person): ArrayList&amp;lt;Person&amp;gt;&lt;/i&gt;&lt;/div&gt;&lt;div&gt;&lt;i&gt;+&lt;span style=&quot;background-color: initial;&quot;&gt;&amp;nbsp;getChildrenOf(parent: Person): ArrayList&amp;lt;Person&amp;gt;&lt;/span&gt;&lt;/i&gt;&lt;/div&gt;&lt;div&gt;&lt;br&gt;&lt;/div&gt;&lt;div&gt;&lt;i&gt;+ addSibling(sibling: Person): void&lt;/i&gt;&lt;/div&gt;&lt;div&gt;&lt;i&gt;+ removeSibling(sibling: Person): void&lt;/i&gt;&lt;/div&gt;&lt;div&gt;&lt;i&gt;&lt;br&gt;&lt;/i&gt;&lt;/div&gt;&lt;div&gt;&lt;i&gt;+ addParent(parent: Person): void&lt;/i&gt;&lt;/div&gt;&lt;div&gt;&lt;i&gt;+ removeParent(parent: Person): void&lt;/i&gt;&lt;/div&gt;" style="text;strokeColor=none;fillColor=none;align=left;verticalAlign=top;spacingLeft=4;spacingRight=4;overflow=hidden;rotatable=0;points=[[0,0.5],[1,0.5]];portConstraint=eastwest;whiteSpace=wrap;html=1;" parent="U78_huqTYP2t_q-OurNE-86" vertex="1">
          <mxGeometry y="48" width="300" height="212" as="geometry" />
        </mxCell>
        <mxCell id="U78_huqTYP2t_q-OurNE-89" value="" style="endArrow=block;dashed=1;endFill=0;endSize=12;html=1;rounded=0;" parent="1" source="U78_huqTYP2t_q-OurNE-49" target="U78_huqTYP2t_q-OurNE-86" edge="1">
          <mxGeometry width="160" relative="1" as="geometry">
            <mxPoint x="2810" y="-860" as="sourcePoint" />
            <mxPoint x="2970" y="-860" as="targetPoint" />
          </mxGeometry>
        </mxCell>
        <mxCell id="U78_huqTYP2t_q-OurNE-90" value="MedicalRecord" style="swimlane;fontStyle=1;align=center;verticalAlign=top;childLayout=stackLayout;horizontal=1;startSize=26;horizontalStack=0;resizeParent=1;resizeParentMax=0;resizeLast=0;collapsible=1;marginBottom=0;whiteSpace=wrap;html=1;" parent="1" vertex="1">
          <mxGeometry x="990" y="-730" width="380" height="280" as="geometry" />
        </mxCell>
        <mxCell id="U78_huqTYP2t_q-OurNE-91" value="&lt;div&gt;- location: Location&lt;/div&gt;&lt;div&gt;- treatmentDetails: String&lt;/div&gt;&lt;div&gt;- dateOfTreatment: String&lt;/div&gt;" style="text;strokeColor=none;fillColor=none;align=left;verticalAlign=top;spacingLeft=4;spacingRight=4;overflow=hidden;rotatable=0;points=[[0,0.5],[1,0.5]];portConstraint=eastwest;whiteSpace=wrap;html=1;" parent="U78_huqTYP2t_q-OurNE-90" vertex="1">
          <mxGeometry y="26" width="380" height="54" as="geometry" />
        </mxCell>
        <mxCell id="U78_huqTYP2t_q-OurNE-92" value="" style="line;strokeWidth=1;fillColor=none;align=left;verticalAlign=middle;spacingTop=-1;spacingLeft=3;spacingRight=3;rotatable=0;labelPosition=right;points=[];portConstraint=eastwest;strokeColor=inherit;" parent="U78_huqTYP2t_q-OurNE-90" vertex="1">
          <mxGeometry y="80" width="380" height="8" as="geometry" />
        </mxCell>
        <mxCell id="U78_huqTYP2t_q-OurNE-93" value="+ MedicalRecord(location: Location, treatmentDetails:&lt;br&gt;string, dateOfTreatment: String)&lt;div&gt;&lt;br&gt;&lt;/div&gt;&lt;div&gt;+ parseDate(date: String, for: String): String&lt;br&gt;&lt;div&gt;&lt;br&gt;+ getLocation(): Location&lt;/div&gt;&lt;div&gt;+ getTreatmentDetails(): String&lt;/div&gt;&lt;div&gt;+ getDateOfTreatment(): String&lt;br&gt;&lt;/div&gt;&lt;div&gt;&lt;br&gt;&lt;/div&gt;&lt;div&gt;+ setTreatmentDetails(treatmentDetails: String): void&lt;br&gt;+ setLocation(location: Location): void&lt;br&gt;+ setDateOfTreatment(dateOfTreatment: String): void&lt;/div&gt;&lt;/div&gt;" style="text;strokeColor=none;fillColor=none;align=left;verticalAlign=top;spacingLeft=4;spacingRight=4;overflow=hidden;rotatable=0;points=[[0,0.5],[1,0.5]];portConstraint=eastwest;whiteSpace=wrap;html=1;" parent="U78_huqTYP2t_q-OurNE-90" vertex="1">
          <mxGeometry y="88" width="380" height="192" as="geometry" />
        </mxCell>
        <mxCell id="U78_huqTYP2t_q-OurNE-94" value="IllegalArgumentException" style="swimlane;fontStyle=1;align=center;verticalAlign=top;childLayout=stackLayout;horizontal=1;startSize=26;horizontalStack=0;resizeParent=1;resizeParentMax=0;resizeLast=0;collapsible=1;marginBottom=0;whiteSpace=wrap;html=1;" parent="1" vertex="1">
          <mxGeometry x="640" y="-630" width="200" height="60" as="geometry" />
        </mxCell>
        <mxCell id="U78_huqTYP2t_q-OurNE-95" value="" style="line;strokeWidth=1;fillColor=none;align=left;verticalAlign=middle;spacingTop=-1;spacingLeft=3;spacingRight=3;rotatable=0;labelPosition=right;points=[];portConstraint=eastwest;strokeColor=inherit;" parent="U78_huqTYP2t_q-OurNE-94" vertex="1">
          <mxGeometry y="26" width="200" height="34" as="geometry" />
        </mxCell>
        <mxCell id="U78_huqTYP2t_q-OurNE-97" value="throws" style="endArrow=open;endSize=12;dashed=1;html=1;rounded=0;exitX=0;exitY=0.298;exitDx=0;exitDy=0;exitPerimeter=0;" parent="1" source="U78_huqTYP2t_q-OurNE-93" target="U78_huqTYP2t_q-OurNE-94" edge="1">
          <mxGeometry width="160" relative="1" as="geometry">
            <mxPoint x="1040" y="-470" as="sourcePoint" />
            <mxPoint x="920" y="-445" as="targetPoint" />
          </mxGeometry>
        </mxCell>
        <mxCell id="U78_huqTYP2t_q-OurNE-98" value="Supply" style="swimlane;fontStyle=1;align=center;verticalAlign=top;childLayout=stackLayout;horizontal=1;startSize=26;horizontalStack=0;resizeParent=1;resizeParentMax=0;resizeLast=0;collapsible=1;marginBottom=0;whiteSpace=wrap;html=1;" parent="1" vertex="1">
          <mxGeometry x="2210" y="-1250" width="230" height="210" as="geometry" />
        </mxCell>
        <mxCell id="U78_huqTYP2t_q-OurNE-99" value="- type: String&lt;div&gt;- quantity: int&lt;br/&gt;&lt;/div&gt;" style="text;strokeColor=none;fillColor=none;align=left;verticalAlign=top;spacingLeft=4;spacingRight=4;overflow=hidden;rotatable=0;points=[[0,0.5],[1,0.5]];portConstraint=eastwest;whiteSpace=wrap;html=1;" parent="U78_huqTYP2t_q-OurNE-98" vertex="1">
          <mxGeometry y="26" width="230" height="54" as="geometry" />
        </mxCell>
        <mxCell id="U78_huqTYP2t_q-OurNE-100" value="" style="line;strokeWidth=1;fillColor=none;align=left;verticalAlign=middle;spacingTop=-1;spacingLeft=3;spacingRight=3;rotatable=0;labelPosition=right;points=[];portConstraint=eastwest;strokeColor=inherit;" parent="U78_huqTYP2t_q-OurNE-98" vertex="1">
          <mxGeometry y="80" width="230" height="8" as="geometry" />
        </mxCell>
        <mxCell id="U78_huqTYP2t_q-OurNE-101" value="+ Supply(type: String, quantity: int)&lt;div&gt;&lt;br&gt;+ getType(): String&lt;div&gt;+ getQuantity(): int&lt;/div&gt;&lt;div&gt;&lt;br&gt;+ setType(type: string): void&lt;br&gt;+ setQuantity(quantity: int): void&lt;/div&gt;&lt;/div&gt;" style="text;strokeColor=none;fillColor=none;align=left;verticalAlign=top;spacingLeft=4;spacingRight=4;overflow=hidden;rotatable=0;points=[[0,0.5],[1,0.5]];portConstraint=eastwest;whiteSpace=wrap;html=1;" parent="U78_huqTYP2t_q-OurNE-98" vertex="1">
          <mxGeometry y="88" width="230" height="122" as="geometry" />
        </mxCell>
        <mxCell id="U78_huqTYP2t_q-OurNE-102" value="Use" style="endArrow=open;endSize=12;dashed=1;html=1;rounded=0;" parent="1" source="U78_huqTYP2t_q-OurNE-13" target="U78_huqTYP2t_q-OurNE-98" edge="1">
          <mxGeometry width="160" relative="1" as="geometry">
            <mxPoint x="2610" y="-1590" as="sourcePoint" />
            <mxPoint x="2770" y="-1590" as="targetPoint" />
          </mxGeometry>
        </mxCell>
        <mxCell id="U78_huqTYP2t_q-OurNE-103" value="" style="endArrow=block;endFill=1;html=1;edgeStyle=orthogonalEdgeStyle;align=left;verticalAlign=top;rounded=0;exitX=0.997;exitY=0.044;exitDx=0;exitDy=0;exitPerimeter=0;" parent="1" edge="1">
          <mxGeometry x="-1" relative="1" as="geometry">
            <mxPoint x="2080" y="-1709.1519999999998" as="sourcePoint" />
            <mxPoint x="2171.3799999999997" y="-870" as="targetPoint" />
          </mxGeometry>
        </mxCell>
        <mxCell id="U78_huqTYP2t_q-OurNE-105" value="1" style="edgeLabel;html=1;align=center;verticalAlign=middle;resizable=0;points=[];" parent="U78_huqTYP2t_q-OurNE-103" vertex="1" connectable="0">
          <mxGeometry x="-0.9503" y="-1" relative="1" as="geometry">
            <mxPoint as="offset" />
          </mxGeometry>
        </mxCell>
        <mxCell id="U78_huqTYP2t_q-OurNE-106" value="0...*" style="edgeLabel;html=1;align=center;verticalAlign=middle;resizable=0;points=[];" parent="U78_huqTYP2t_q-OurNE-103" vertex="1" connectable="0">
          <mxGeometry x="0.9163" y="-1" relative="1" as="geometry">
            <mxPoint as="offset" />
          </mxGeometry>
        </mxCell>
        <mxCell id="U78_huqTYP2t_q-OurNE-107" value="missingPersons" style="edgeLabel;html=1;align=center;verticalAlign=middle;resizable=0;points=[];" parent="U78_huqTYP2t_q-OurNE-103" vertex="1" connectable="0">
          <mxGeometry x="0.4415" y="-2" relative="1" as="geometry">
            <mxPoint as="offset" />
          </mxGeometry>
        </mxCell>
        <mxCell id="U78_huqTYP2t_q-OurNE-108" value="" style="endArrow=diamondThin;endFill=0;endSize=24;html=1;rounded=0;entryX=0;entryY=0.5;entryDx=0;entryDy=0;" parent="1" source="U78_huqTYP2t_q-OurNE-1" target="U78_huqTYP2t_q-OurNE-14" edge="1">
          <mxGeometry width="160" relative="1" as="geometry">
            <mxPoint x="1960" y="-1270" as="sourcePoint" />
            <mxPoint x="2120" y="-1270" as="targetPoint" />
          </mxGeometry>
        </mxCell>
        <mxCell id="U78_huqTYP2t_q-OurNE-109" value="0...*" style="edgeLabel;html=1;align=center;verticalAlign=middle;resizable=0;points=[];" parent="U78_huqTYP2t_q-OurNE-108" vertex="1" connectable="0">
          <mxGeometry x="-0.9185" y="1" relative="1" as="geometry">
            <mxPoint as="offset" />
          </mxGeometry>
        </mxCell>
        <mxCell id="U78_huqTYP2t_q-OurNE-110" value="1" style="edgeLabel;html=1;align=center;verticalAlign=middle;resizable=0;points=[];" parent="U78_huqTYP2t_q-OurNE-108" vertex="1" connectable="0">
          <mxGeometry x="0.8405" y="-1" relative="1" as="geometry">
            <mxPoint x="-1" as="offset" />
          </mxGeometry>
        </mxCell>
        <mxCell id="U78_huqTYP2t_q-OurNE-111" value="" style="endArrow=diamondThin;endFill=1;endSize=24;html=1;rounded=0;" parent="1" source="U78_huqTYP2t_q-OurNE-98" target="U78_huqTYP2t_q-OurNE-5" edge="1">
          <mxGeometry width="160" relative="1" as="geometry">
            <mxPoint x="2240" y="-990" as="sourcePoint" />
            <mxPoint x="2400" y="-990" as="targetPoint" />
          </mxGeometry>
        </mxCell>
        <mxCell id="U78_huqTYP2t_q-OurNE-112" value="1" style="edgeLabel;html=1;align=center;verticalAlign=middle;resizable=0;points=[];" parent="U78_huqTYP2t_q-OurNE-111" vertex="1" connectable="0">
          <mxGeometry x="0.5473" y="1" relative="1" as="geometry">
            <mxPoint as="offset" />
          </mxGeometry>
        </mxCell>
        <mxCell id="U78_huqTYP2t_q-OurNE-113" value="0...*" style="edgeLabel;html=1;align=center;verticalAlign=middle;resizable=0;points=[];" parent="U78_huqTYP2t_q-OurNE-111" vertex="1" connectable="0">
          <mxGeometry x="-0.8485" y="1" relative="1" as="geometry">
            <mxPoint as="offset" />
          </mxGeometry>
        </mxCell>
        <mxCell id="U78_huqTYP2t_q-OurNE-114" value="" style="endArrow=diamondThin;endFill=0;endSize=24;html=1;rounded=0;" parent="1" source="U78_huqTYP2t_q-OurNE-90" target="U78_huqTYP2t_q-OurNE-5" edge="1">
          <mxGeometry width="160" relative="1" as="geometry">
            <mxPoint x="1360" y="-870" as="sourcePoint" />
            <mxPoint x="1660" y="-450" as="targetPoint" />
          </mxGeometry>
        </mxCell>
        <mxCell id="U78_huqTYP2t_q-OurNE-115" value="1" style="edgeLabel;html=1;align=center;verticalAlign=middle;resizable=0;points=[];" parent="U78_huqTYP2t_q-OurNE-114" vertex="1" connectable="0">
          <mxGeometry x="0.4876" y="-2" relative="1" as="geometry">
            <mxPoint as="offset" />
          </mxGeometry>
        </mxCell>
        <mxCell id="U78_huqTYP2t_q-OurNE-116" value="0...*" style="edgeLabel;html=1;align=center;verticalAlign=middle;resizable=0;points=[];" parent="U78_huqTYP2t_q-OurNE-114" vertex="1" connectable="0">
          <mxGeometry x="-0.8003" relative="1" as="geometry">
            <mxPoint as="offset" />
          </mxGeometry>
        </mxCell>
        <mxCell id="U78_huqTYP2t_q-OurNE-117" value="IllegalArgumentException" style="swimlane;fontStyle=1;align=center;verticalAlign=top;childLayout=stackLayout;horizontal=1;startSize=26;horizontalStack=0;resizeParent=1;resizeParentMax=0;resizeLast=0;collapsible=1;marginBottom=0;whiteSpace=wrap;html=1;" parent="1" vertex="1">
          <mxGeometry x="1320" y="-1480" width="200" height="60" as="geometry" />
        </mxCell>
        <mxCell id="U78_huqTYP2t_q-OurNE-118" value="" style="line;strokeWidth=1;fillColor=none;align=left;verticalAlign=middle;spacingTop=-1;spacingLeft=3;spacingRight=3;rotatable=0;labelPosition=right;points=[];portConstraint=eastwest;strokeColor=inherit;" parent="U78_huqTYP2t_q-OurNE-117" vertex="1">
          <mxGeometry y="26" width="200" height="34" as="geometry" />
        </mxCell>
        <mxCell id="U78_huqTYP2t_q-OurNE-120" value="" style="endArrow=block;endFill=1;html=1;edgeStyle=orthogonalEdgeStyle;align=left;verticalAlign=top;rounded=0;" parent="1" source="U78_huqTYP2t_q-OurNE-9" target="U78_huqTYP2t_q-OurNE-39" edge="1">
          <mxGeometry x="-1" relative="1" as="geometry">
            <mxPoint x="1530" y="-1350" as="sourcePoint" />
            <mxPoint x="1690" y="-1350" as="targetPoint" />
            <Array as="points">
              <mxPoint x="1230" y="-1370" />
              <mxPoint x="1860" y="-1370" />
            </Array>
          </mxGeometry>
        </mxCell>
        <mxCell id="U78_huqTYP2t_q-OurNE-122" value="inquirer" style="edgeLabel;html=1;align=center;verticalAlign=middle;resizable=0;points=[];" parent="U78_huqTYP2t_q-OurNE-120" vertex="1" connectable="0">
          <mxGeometry x="-0.3256" y="-1" relative="1" as="geometry">
            <mxPoint as="offset" />
          </mxGeometry>
        </mxCell>
        <mxCell id="U78_huqTYP2t_q-OurNE-123" value="0...*" style="edgeLabel;html=1;align=center;verticalAlign=middle;resizable=0;points=[];" parent="U78_huqTYP2t_q-OurNE-120" vertex="1" connectable="0">
          <mxGeometry x="-0.9537" y="3" relative="1" as="geometry">
            <mxPoint as="offset" />
          </mxGeometry>
        </mxCell>
        <mxCell id="U78_huqTYP2t_q-OurNE-124" value="1" style="edgeLabel;html=1;align=center;verticalAlign=middle;resizable=0;points=[];" parent="U78_huqTYP2t_q-OurNE-120" vertex="1" connectable="0">
          <mxGeometry x="0.9367" y="-1" relative="1" as="geometry">
            <mxPoint as="offset" />
          </mxGeometry>
        </mxCell>
        <mxCell id="U78_huqTYP2t_q-OurNE-125" value="Use" style="endArrow=open;endSize=12;dashed=1;html=1;rounded=0;" parent="1" source="U78_huqTYP2t_q-OurNE-36" target="U78_huqTYP2t_q-OurNE-13" edge="1">
          <mxGeometry width="160" relative="1" as="geometry">
            <mxPoint x="2170" y="-1740" as="sourcePoint" />
            <mxPoint x="2210" y="-1520" as="targetPoint" />
          </mxGeometry>
        </mxCell>
        <mxCell id="zhFOmnSfMoZi6MDNvv0f-1" value="&amp;lt;&amp;lt;interface&amp;gt;&amp;gt;&lt;div&gt;&lt;i&gt;DateParser&lt;/i&gt;&lt;/div&gt;" style="swimlane;fontStyle=1;align=center;verticalAlign=top;childLayout=stackLayout;horizontal=1;startSize=36;horizontalStack=0;resizeParent=1;resizeParentMax=0;resizeLast=0;collapsible=1;marginBottom=0;whiteSpace=wrap;html=1;" parent="1" vertex="1">
          <mxGeometry x="980" y="-1120" width="290" height="90" as="geometry">
            <mxRectangle x="1040" y="-1120" width="110" height="40" as="alternateBounds" />
          </mxGeometry>
        </mxCell>
        <mxCell id="zhFOmnSfMoZi6MDNvv0f-3" value="" style="line;strokeWidth=1;fillColor=none;align=left;verticalAlign=middle;spacingTop=-1;spacingLeft=3;spacingRight=3;rotatable=0;labelPosition=right;points=[];portConstraint=eastwest;strokeColor=inherit;" parent="zhFOmnSfMoZi6MDNvv0f-1" vertex="1">
          <mxGeometry y="36" width="290" height="8" as="geometry" />
        </mxCell>
        <mxCell id="zhFOmnSfMoZi6MDNvv0f-4" value="&lt;i&gt;+ parseDate(date: String, for: String): String&lt;/i&gt;" style="text;strokeColor=none;fillColor=none;align=left;verticalAlign=top;spacingLeft=4;spacingRight=4;overflow=hidden;rotatable=0;points=[[0,0.5],[1,0.5]];portConstraint=eastwest;whiteSpace=wrap;html=1;" parent="zhFOmnSfMoZi6MDNvv0f-1" vertex="1">
          <mxGeometry y="44" width="290" height="46" as="geometry" />
        </mxCell>
        <mxCell id="zhFOmnSfMoZi6MDNvv0f-8" value="" style="endArrow=block;dashed=1;endFill=0;endSize=12;html=1;rounded=0;exitX=0.001;exitY=0.139;exitDx=0;exitDy=0;exitPerimeter=0;" parent="1" source="U78_huqTYP2t_q-OurNE-4" target="zhFOmnSfMoZi6MDNvv0f-1" edge="1">
          <mxGeometry width="160" relative="1" as="geometry">
            <mxPoint x="1610" y="-1220" as="sourcePoint" />
            <mxPoint x="1770" y="-1220" as="targetPoint" />
          </mxGeometry>
        </mxCell>
        <mxCell id="zhFOmnSfMoZi6MDNvv0f-9" value="" style="endArrow=block;dashed=1;endFill=0;endSize=12;html=1;rounded=0;" parent="1" source="U78_huqTYP2t_q-OurNE-90" target="zhFOmnSfMoZi6MDNvv0f-1" edge="1">
          <mxGeometry width="160" relative="1" as="geometry">
            <mxPoint x="960" y="-710" as="sourcePoint" />
            <mxPoint x="1120" y="-710" as="targetPoint" />
          </mxGeometry>
        </mxCell>
        <mxCell id="zhFOmnSfMoZi6MDNvv0f-10" value="throws" style="endArrow=open;endSize=12;dashed=1;html=1;rounded=0;exitX=0.001;exitY=0.246;exitDx=0;exitDy=0;exitPerimeter=0;" parent="1" source="U78_huqTYP2t_q-OurNE-39" target="U78_huqTYP2t_q-OurNE-117" edge="1">
          <mxGeometry width="160" relative="1" as="geometry">
            <mxPoint x="1640" y="-1496" as="sourcePoint" />
            <mxPoint x="1530" y="-1467" as="targetPoint" />
          </mxGeometry>
        </mxCell>
        <mxCell id="zhFOmnSfMoZi6MDNvv0f-11" value="" style="endArrow=block;dashed=1;endFill=0;endSize=12;html=1;rounded=0;" parent="1" source="U78_huqTYP2t_q-OurNE-39" target="zhFOmnSfMoZi6MDNvv0f-1" edge="1">
          <mxGeometry width="160" relative="1" as="geometry">
            <mxPoint x="1420" y="-1320" as="sourcePoint" />
            <mxPoint x="1580" y="-1320" as="targetPoint" />
          </mxGeometry>
        </mxCell>
        <mxCell id="zhFOmnSfMoZi6MDNvv0f-13" value="set date of birth or age (not both)" style="text;html=1;align=center;verticalAlign=middle;resizable=0;points=[];autosize=1;strokeColor=none;fillColor=none;" parent="1" vertex="1">
          <mxGeometry x="1540" y="-1322" width="200" height="30" as="geometry" />
        </mxCell>
        <mxCell id="zhFOmnSfMoZi6MDNvv0f-14" value="You can imagine that the date parser would return a java date time object" style="text;html=1;align=center;verticalAlign=middle;resizable=0;points=[];autosize=1;strokeColor=none;fillColor=none;" parent="1" vertex="1">
          <mxGeometry x="1550" y="-1350" width="410" height="30" as="geometry" />
        </mxCell>
        <mxCell id="zhFOmnSfMoZi6MDNvv0f-16" value="Generic Occupants" style="text;html=1;align=center;verticalAlign=middle;resizable=0;points=[];autosize=1;strokeColor=none;fillColor=none;" parent="1" vertex="1">
          <mxGeometry x="2535" y="-1622" width="130" height="30" as="geometry" />
        </mxCell>
        <mxCell id="zhFOmnSfMoZi6MDNvv0f-17" value="T" style="rounded=1;whiteSpace=wrap;html=1;" parent="1" vertex="1">
          <mxGeometry x="2502" y="-1700" width="60" height="50" as="geometry" />
        </mxCell>
      </root>
    </mxGraphModel>
  </diagram>
</mxfile>
